<svg xmlns="http://www.w3.org/2000/svg" width="84" height="25" fill="none">
  <g fill="#0D0B0A" clip-path="url(#a)">
    <path d="M15.272.86c.374.185.793.718 1.075 1.032 2.417 2.7 3.685 6.14 3.46 9.759-.217 3.503-1.947 6.613-4.543 8.912-.492-.336-.942-.814-1.335-1.26-2.206-2.494-3.415-5.999-3.204-9.324.217-3.429 1.97-6.859 4.547-9.12Z"/>
    <path d="m25.558 5.763.022.036c.137.28.177.725.212 1.036.182 1.616.031 3.237-.537 4.768-1.421 3.825-4.705 6.64-8.335 8.309-.043 0-.014.003-.08-.035.222-.363.532-.688.788-1.029.391-.532.746-1.09 1.061-1.67 1.113-2.047 1.644-4.298 1.643-6.619 0-.659-.016-1.317-.207-1.954.34-.378.758-.696 1.163-1.002 1.305-.988 2.62-1.676 4.27-1.84ZM4.94 5.779c.196.007.394.033.588.062 1.491.227 2.796 1.021 3.961 1.94.325.257.681.524.926.862-.62 3.182.202 6.519 1.848 9.271.262.438.546.862.85 1.272.146.196.318.373.449.578l-.047.06c-2.713-1.16-5.255-3.214-6.89-5.668C4.91 11.581 4.342 8.807 4.94 5.78Z"/>
    <path d="M28.212 12.88c.433-.05 1.403-.105 1.765.125.019.055.024.06.026.127.007.254-.159.633-.245.87a10.122 10.122 0 0 1-2.86 4.237c-2.547 2.252-5.847 3.06-9.18 2.845-.629-.066-1.278-.11-1.883-.303 2.792-.859 5.448-2.613 7.373-4.804.473-.54.82-1.165 1.28-1.706.874-1.029 2.458-1.3 3.724-1.39ZM1.537 12.966c1.301-.153 3.067.06 4.139.871.637.482 1.02 1.376 1.548 1.985a16.466 16.466 0 0 0 6.029 4.396c.494.211 1.002.432 1.524.56l-1.043.175c-3.04.437-6.191-.106-8.793-1.797-1.771-1.152-3.018-2.732-3.752-4.703-.107-.289-.268-.602-.323-.903a.52.52 0 0 1 .098-.441c.164-.12.377-.12.573-.143ZM54.632 10.339c1.013-.009 2.119-.1 3.12.047.643.094 1.297.324 1.688.876.288.406.383.977.294 1.462-.11.595-.486.938-.963 1.258.114.049.227.101.337.16.42.227.72.623.842 1.083.169.63.034 1.279-.28 1.837a1.65 1.65 0 0 1-.247.29c-.962.912-3.07.736-4.313.724-.239-.002-.554.02-.732-.162a.594.594 0 0 1-.066-.254c-.082-1.335-.008-2.72-.008-4.059 0-.948-.096-2.183.028-3.1.096-.119.156-.118.3-.162Zm3.395 4.693c-.537-.35-1.441-.249-2.064-.248l.002 1.73c.69.004 1.497.11 2.11-.26.143-.212.288-.528.246-.792a.608.608 0 0 0-.294-.43Zm-.256-3.075c-.512-.308-1.231-.23-1.807-.227v1.66c.618.005 1.355.096 1.895-.253.145-.207.285-.506.23-.768-.04-.193-.154-.313-.318-.412ZM45.185 12.136c.154-.013.31-.005.462.024.463.093.69.434.937.798.014-.127.024-.264.054-.388.03-.13.101-.21.218-.272.187-.1.59-.106.785-.033.143.053.302.177.351.327.146.443.09 4.778.005 5.371-.055.39-.176.776-.374 1.118-.317.553-.858.913-1.465 1.078-.857.23-1.83.157-2.595-.303-.341-.205-.501-.47-.591-.85.029-.137.063-.271.18-.36.383-.29 1.21.196 1.635.275.366.068.76.03 1.065-.2.501-.377.584-1.076.67-1.652-.336.358-.655.647-1.15.768a2.022 2.022 0 0 1-1.585-.264c-.607-.403-.946-1.093-1.07-1.794-.151-.854-.02-1.875.498-2.59.494-.68 1.172-.93 1.97-1.053Zm.09 1.307c-.399.15-.62.335-.79.733-.211.49-.217 1.198-.011 1.688.109.26.327.532.601.624.182.061.4.035.587.022.33-.117.516-.256.672-.575.24-.49.248-1.182.065-1.694-.107-.298-.317-.59-.615-.72a1.194 1.194 0 0 0-.508-.078ZM78.353 12.182c.393-.052.779-.034 1.15.12.51.211.776.597.979 1.09.103-.26.218-.523.402-.738.29-.342.67-.478 1.11-.495.508-.02 1.028.097 1.4.462.244.24.394.56.476.89.218.875.096 2.757.1 3.747 0 .151.019.63-.1.72-.201.152-.916.118-1.167.083-.147-.02-.237-.1-.297-.233-.094-.204-.044-.57-.041-.796.01-.734.19-2.763-.244-3.299a.564.564 0 0 0-.4-.21c-.234-.017-.532.064-.702.23-.602.59-.402 2.688-.398 3.513.002.166.008.348-.013.514-.009.073-.034.157-.1.195-.258.147-.882.125-1.165.06-.148-.035-.21-.085-.263-.228-.087-.237-.039-.589-.034-.84.013-.735.187-2.564-.187-3.116a.698.698 0 0 0-.476-.299c-.224-.036-.457-.006-.639.137-.732.578-.532 2.603-.529 3.44.001.201.042.49-.004.677-.02.079-.042.127-.11.17-.235.155-.873.122-1.155.067-.118-.024-.194-.096-.245-.204-.072-.152-.093-4.553-.066-4.989a.934.934 0 0 1 .088-.36.56.56 0 0 1 .338-.28c.349-.112.783.013 1.091.184.074.275.021.635.01.922.035-.073.072-.146.11-.219.271-.525.526-.739 1.081-.915ZM72.02 12.205a2.962 2.962 0 1 1 .123 5.922 2.962 2.962 0 0 1-.122-5.922Zm-.198 1.288c-.436.193-.673.415-.841.87-.202.544-.17 1.304.089 1.823.139.28.355.507.656.608.206.069.398.08.61.03.417-.175.667-.398.838-.825.215-.537.213-1.253-.034-1.779-.154-.328-.43-.6-.782-.704-.173-.05-.36-.04-.536-.023ZM39.204 12.213a2.96 2.96 0 1 1 .268 5.913 2.96 2.96 0 0 1-.268-5.913Zm.461 1.319a1.27 1.27 0 0 0-.579-.04c-.436.217-.686.442-.853.92-.189.54-.16 1.313.111 1.82.148.277.373.48.676.572.186.057.397.062.586.017.416-.173.66-.397.828-.824a2.406 2.406 0 0 0-.05-1.786c-.145-.31-.39-.567-.719-.68Z"/>
    <path d="M65.388 12.246a2.958 2.958 0 1 1 .942 5.84 2.958 2.958 0 0 1-.942-5.84Zm.24 1.244c-.438.186-.69.398-.868.852-.207.533-.187 1.27.06 1.787.148.313.4.57.735.675.167.054.356.053.529.032.437-.185.692-.392.873-.846.21-.528.207-1.257-.038-1.773-.146-.306-.394-.564-.718-.68a1.37 1.37 0 0 0-.572-.047ZM50.603 12.185c.37-.044.727-.037 1.092.048.554.128 1.018.45 1.3.947.152.266.239.558.28.86.066.467.102 3.42-.004 3.826a.478.478 0 0 1-.318.184c-.236.05-.755.08-.947-.097-.167-.154-.133-.477-.135-.685-.277.41-.556.74-1.061.867-.564.14-1.087-.025-1.572-.305-.207-.19-.364-.385-.453-.656-.15-.456-.102-1.072.131-1.492.567-1.02 1.902-.959 2.878-1.246l.06-.019c-.038-.122-.076-.246-.127-.364-.552-1.274-1.93.118-2.596-.232a.555.555 0 0 1-.265-.36c-.046-.194.006-.319.112-.48.358-.545 1.028-.682 1.625-.796Zm1.186 3.403c-.405.112-1.167.235-1.409.603a.458.458 0 0 0-.034.41c.036.093.107.175.169.252.42.028.682-.003 1.003-.294.194-.177.373-.462.363-.737-.002-.068-.021-.137-.037-.203l-.055-.03ZM34.049 13.281c.145-.462 1.276-2.671 1.636-2.879.188-.108 1.187-.124 1.388-.032.129.059.142.094.2.214-.102.572-1.366 2.492-1.74 3.118l-.657 1.092c.003.657.118 2.661-.11 3.136a.556.556 0 0 1-.238.12c-.309.072-.923.05-1.194-.121-.211-.277-.1-2.578-.1-3.087-.336-.537-2.504-3.997-2.446-4.328.071-.103.117-.128.233-.174.366-.01 1.11-.108 1.412.076.392.238 1.47 2.379 1.616 2.865ZM60.886 10.339c.383-.01 1.01-.106 1.342.092.093.632.056 1.3.058 1.937l.004 2.95c0 .77.084 1.698-.015 2.454-.02.15-.113.2-.222.286-.4.013-1.013.112-1.342-.148-.078-.295-.126-7.105-.052-7.374.036-.128.12-.142.227-.197ZM15.43 20.984a9.209 9.209 0 0 0 1.615.43c.956.154 2.066.109 2.925.607.635.367 1.284 1.229 1.463 1.943.033.13.023.142-.044.25-.663.24-1.308.182-1.968-.034-1.591-.52-3.213-1.68-3.992-3.196ZM15.13 20.988c.034-.003.066.015.098.024-.002.015-.001.03-.005.046-.082.338-1.391 1.72-1.694 1.958-1.045.826-2.597 1.48-3.945 1.32-.036-.008-.086-.018-.119-.033-.072-.034-.118-.06-.137-.139-.051-.21.068-.456.164-.639.31-.59.793-1.283 1.399-1.602.746-.392 1.85-.391 2.68-.539a13.32 13.32 0 0 0 1.559-.396Z"/>
  </g>
</svg>
