<svg aria-hidden="true" style="position: absolute; width: 0; height: 0; overflow: hidden;" version="1.1" xmlns="http://www.w3.org/2000/svg" xmlns:xlink="http://www.w3.org/1999/xlink">
<defs>
<symbol id="icon-check" viewBox="0 0 32 32">
<path d="M30.841 8.114l-18.844 18.844c-0.167 0.168-0.394 0.263-0.631 0.263s-0.464-0.095-0.631-0.263l-9.582-9.582c-0.168-0.167-0.263-0.394-0.263-0.631s0.095-0.464 0.263-0.631l1.244-1.244c0.167-0.168 0.394-0.263 0.631-0.263s0.464 0.095 0.631 0.263l7.698 7.698 16.978-16.978c0.352-0.341 0.911-0.341 1.262 0l1.244 1.262c0.168 0.167 0.263 0.394 0.263 0.631s-0.095 0.464-0.263 0.631z"></path>
</symbol>
<symbol id="icon-facebook" viewBox="0 0 32 32">
<path d="M31.238 15.701c0-8.467-6.822-15.331-15.238-15.331s-15.238 6.864-15.238 15.331c0 7.652 5.572 13.995 12.857 15.145v-10.713h-3.869v-4.432h3.869v-3.378c0-3.842 2.275-5.965 5.756-5.965 1.667 0 3.411 0.299 3.411 0.299v3.773h-1.921c-1.893 0-2.483 1.182-2.483 2.394v2.876h4.226l-0.675 4.432h-3.551v10.713c7.285-1.15 12.857-7.493 12.857-15.145z"></path>
</symbol>
<symbol id="icon-facebook-footer" viewBox="0 0 32 32">
<path d="M31.238 16.462c0-8.467-6.822-15.331-15.238-15.331s-15.238 6.864-15.238 15.331c0 7.652 5.572 13.995 12.857 15.145v-10.713h-3.869v-4.432h3.869v-3.378c0-3.842 2.275-5.965 5.756-5.965 1.667 0 3.411 0.299 3.411 0.299v3.773h-1.921c-1.893 0-2.483 1.182-2.483 2.394v2.876h4.226l-0.675 4.432h-3.551v10.713c7.285-1.15 12.857-7.493 12.857-15.145z"></path>
</symbol>
<symbol id="icon-modal-close" viewBox="0 0 32 32">
<path d="M29.671 28.728l-0.943 0.943c-0.521 0.521-1.365 0.521-1.886 0l-10.842-10.842-10.842 10.842c-0.521 0.521-1.365 0.521-1.886 0l-0.943-0.943c-0.521-0.521-0.521-1.365 0-1.886l10.842-10.842-10.842-10.842c-0.521-0.521-0.521-1.365 0-1.886l0.943-0.943c0.521-0.521 1.365-0.521 1.886 0l10.842 10.842 10.842-10.842c0.521-0.521 1.365-0.521 1.886 0l0.943 0.943c0.521 0.521 0.521 1.365 0 1.886l-10.842 10.842 10.842 10.842c0.521 0.521 0.521 1.365 0 1.886z"></path>
</symbol>
<symbol id="icon-instagram" viewBox="0 0 32 32">
<path d="M22.737 0.409h-13.474c-4.651 0-8.421 3.77-8.421 8.421v13.474c0 4.651 3.77 8.421 8.421 8.421h13.474c4.651 0 8.421-3.77 8.421-8.421v-13.474c0-4.651-3.77-8.421-8.421-8.421zM28.211 22.303c-0.009 3.019-2.455 5.464-5.474 5.474h-13.474c-3.019-0.009-5.464-2.455-5.474-5.474v-13.474c0.009-3.019 2.454-5.464 5.474-5.474h13.474c3.019 0.009 5.464 2.454 5.474 5.474v13.474zM24 9.251c-0.93 0-1.684-0.754-1.684-1.684s0.754-1.684 1.684-1.684c0.93 0 1.684 0.754 1.684 1.684s-0.754 1.684-1.684 1.684zM16 7.988c2.011-0.004 3.942 0.793 5.364 2.215s2.219 3.353 2.215 5.364c0 4.186-3.393 7.579-7.579 7.579s-7.579-3.393-7.579-7.579c0-4.186 3.393-7.579 7.579-7.579zM11.368 15.567c0 2.558 2.074 4.632 4.632 4.632s4.632-2.074 4.632-4.632c0-2.558-2.074-4.632-4.632-4.632s-4.632 2.074-4.632 4.632z"></path>
</symbol>
<symbol id="icon-instagram-footer" viewBox="0 0 32 32">
<path d="M22.737 1.25h-13.474c-4.651 0-8.421 3.77-8.421 8.421v13.474c0 4.651 3.77 8.421 8.421 8.421h13.474c4.651 0 8.421-3.77 8.421-8.421v-13.474c0-4.651-3.77-8.421-8.421-8.421zM28.211 23.145c-0.009 3.019-2.455 5.464-5.474 5.474h-13.474c-3.019-0.009-5.464-2.455-5.474-5.474v-13.474c0.009-3.019 2.454-5.464 5.474-5.474h13.474c3.019 0.009 5.464 2.454 5.474 5.474v13.474zM24 10.092c-0.93 0-1.684-0.754-1.684-1.684s0.754-1.684 1.684-1.684c0.93 0 1.684 0.754 1.684 1.684s-0.754 1.684-1.684 1.684zM16 8.829c2.011-0.004 3.942 0.793 5.364 2.215s2.219 3.353 2.215 5.364c0 4.186-3.393 7.579-7.579 7.579s-7.579-3.393-7.579-7.579c0-4.186 3.393-7.579 7.579-7.579zM11.368 16.408c0 2.558 2.074 4.632 4.632 4.632s4.632-2.074 4.632-4.632c0-2.558-2.074-4.632-4.632-4.632s-4.632 2.074-4.632 4.632z"></path>
</symbol>
<symbol id="icon-linkedin" viewBox="0 0 32 32">
<path d="M3.368 0.409h25.263c1.395 0 2.526 1.131 2.526 2.526v25.263c0 1.395-1.131 2.526-2.526 2.526h-25.263c-1.395 0-2.526-1.131-2.526-2.526v-25.263c0-1.395 1.131-2.526 2.526-2.526zM10.14 7.15c0.009-1.412-1.066-2.499-2.548-2.532-1.461-0.033-2.586 1.111-2.593 2.534-0.007 1.513 1.168 2.586 2.515 2.593 1.431 0.007 2.636-0.985 2.627-2.596zM16.471 11.797h-4.247v14.417h4.486v-0.336c0-0.64-0-1.28-0.001-1.92-0.001-1.707-0.003-3.417 0.006-5.124 0.002-0.414 0.021-0.845 0.128-1.241 0.4-1.478 1.729-2.432 3.212-2.198 0.952 0.149 1.582 0.701 1.847 1.599 0.164 0.561 0.237 1.165 0.244 1.75 0.019 1.764 0.017 3.529 0.014 5.293-0.001 0.623-0.002 1.246-0.002 1.869v0.306h4.5v-0.346c0-0.761-0-1.522-0.001-2.283-0.001-1.902-0.002-3.805 0.003-5.708 0.002-0.86-0.090-1.708-0.301-2.539-0.315-1.236-0.966-2.26-2.025-2.998-0.751-0.526-1.575-0.864-2.496-0.902-0.105-0.004-0.211-0.010-0.317-0.016-0.471-0.025-0.95-0.051-1.4 0.040-1.288 0.258-2.42 0.848-3.275 1.888-0.099 0.119-0.197 0.24-0.342 0.421l-0.033 0.041v-2.011zM5.359 26.218h4.464v-14.412h-4.464v14.412z"></path>
</symbol>
<symbol id="icon-linkedin-footer" viewBox="0 0 32 32">
<path d="M3.368 1.25h25.263c1.395 0 2.526 1.131 2.526 2.526v25.263c0 1.395-1.131 2.526-2.526 2.526h-25.263c-1.395 0-2.526-1.131-2.526-2.526v-25.263c0-1.395 1.131-2.526 2.526-2.526zM10.14 7.991c0.009-1.412-1.066-2.499-2.548-2.532-1.461-0.033-2.586 1.111-2.593 2.534-0.007 1.513 1.168 2.586 2.515 2.593 1.431 0.007 2.636-0.985 2.627-2.596zM16.471 12.638h-4.247v14.417h4.486v-0.336c0-0.64-0-1.28-0.001-1.92-0.001-1.707-0.003-3.417 0.006-5.124 0.002-0.414 0.021-0.845 0.128-1.241 0.4-1.478 1.729-2.432 3.212-2.198 0.952 0.149 1.582 0.701 1.847 1.599 0.164 0.561 0.237 1.165 0.244 1.75 0.019 1.764 0.017 3.529 0.014 5.293-0.001 0.623-0.002 1.246-0.002 1.869v0.306h4.5v-0.346c0-0.761-0-1.522-0.001-2.283-0.001-1.902-0.002-3.805 0.003-5.708 0.002-0.86-0.090-1.708-0.301-2.539-0.315-1.236-0.966-2.26-2.025-2.998-0.751-0.526-1.575-0.864-2.496-0.902-0.105-0.004-0.211-0.010-0.317-0.016-0.471-0.025-0.95-0.051-1.4 0.040-1.288 0.258-2.42 0.848-3.275 1.888-0.099 0.119-0.197 0.24-0.342 0.421l-0.033 0.041v-2.011zM5.359 27.060h4.464v-14.412h-4.464v14.412z"></path>
</symbol>
<symbol id="icon-menu" viewBox="0 0 32 32">
<path d="M5.333 8h21.333v2.667h-21.333v-2.667zM5.333 14.667h21.333v2.667h-21.333v-2.667zM5.333 21.333h21.333v2.667h-21.333v-2.667z"></path>
</symbol>
<symbol id="icon-x" viewBox="0 0 32 32">
<path d="M21.589 8.459l-5.657 5.656-5.656-5.656-1.885 1.885 5.656 5.656-5.656 5.656 1.885 1.885 5.656-5.656 5.657 5.656 1.885-1.885-5.656-5.656 5.656-5.656-1.885-1.885z"></path>
</symbol>
<symbol id="icon-youtube" viewBox="0 0 32 32">
<path d="M31.38 8.69c-0.174-0.644-0.513-1.231-0.984-1.703s-1.058-0.813-1.701-0.988c-2.386-0.655-11.933-0.666-11.933-0.666s-9.545-0.011-11.933 0.616c-0.643 0.183-1.228 0.528-1.7 1.003s-0.813 1.062-0.991 1.706c-0.629 2.386-0.635 7.336-0.635 7.336s-0.006 4.974 0.619 7.336c0.35 1.306 1.379 2.338 2.686 2.69 2.411 0.655 11.931 0.666 11.931 0.666s9.547 0.011 11.933-0.614c0.644-0.175 1.231-0.514 1.703-0.986s0.813-1.058 0.989-1.701c0.631-2.385 0.635-7.333 0.635-7.333s0.030-4.975-0.62-7.362zM13.708 20.579l0.008-9.143 7.934 4.579-7.942 4.564z"></path>
</symbol>
</defs>
</svg>
